<?xml version="1.0" encoding="UTF-8"?>
<svg version="1.1" viewBox="0 0 2048 2048" width="4167" height="4167" xmlns="http://www.w3.org/2000/svg">
<path transform="translate(1210,601)" d="m0 0h60l33 2 35 4 28 5 24 6 27 9 20 9 18 10 16 12 10 9 8 8 10 13 8 15 4 13 1 6v21l-4 18-7 19-11 21-9 13-8 10-11 12-14 14-11 9-16 13-18 13-23 15-21 13-26 15-24 13-38 20-23 11-35 16-40 17-46 18-42 15-52 17-60 17-49 13-49 12-57 12-61 11-54 9-59 8-65 7-83 7-61 4-27 1 4-2 56-10 140-23 58-11 54-12 64-16 43-12 43-13 42-14 30-11 33-13 26-11 33-15 21-10 19-10 24-13 22-13 24-15 19-13 14-10 16-12 14-11 13-11 11-9 16-15 9-8 7-8 11-13 10-15 11-21 6-18 3-18v-13l-2-13-5-14-7-11-13-13-15-10-16-8-15-6-23-7-29-6-30-4-22-2-18-1-33-1h-33l-69 2-51 2h-10l2-2 55-12 48-9 57-9 50-6 46-4z" fill="#C08433"/>
<path transform="translate(985,666)" d="m0 0h23l30 1 37 3 33 5 26 6 20 6 19 8 19 10 13 10 13 13 9 14 5 14 1 5v17l-4 17-8 19-9 15-9 11-9 10-10 10-11 9-18 14-12 8-17 11-15 9-21 12-24 13-38 19-36 16-34 14-40 15-42 14-46 13-52 13-49 10-61 11-90 15-68 10-78 10-17 2h-6l4-2 42-10 101-22 67-15 65-16 53-15 41-13 42-15 36-15 24-11 16-8 25-13 20-12 27-18 16-12 16-13 10-9 8-7 19-19 11-14 10-15 9-19 4-14 1-6v-18l-3-11-5-10-11-12-15-11-17-9-19-7-21-6-26-5-33-4-27-2-59-2-37-1 1-2 39-7 46-6 46-4z" fill="#A7A9AC"/>
<path transform="translate(819,712)" d="m0 0h40l29 2 32 5 25 7 19 8 12 7 13 10 10 11 7 12 3 10v16l-5 17-9 17-10 13-14 14-14 11-14 10-17 11-24 14-27 14-16 8-26 12-37 15-34 12-28 9-41 11-46 11-70 14-69 12-60 9-31 4h-8l4-2 73-17 56-13 52-13 45-13 43-14 34-13 27-12 32-16 17-10 27-18 18-14 11-10 8-7 10-10 11-14 8-13 5-11 3-10 1-7v-9l-3-12-6-9-10-9-16-9-19-7-24-6-26-4-32-3-41-2-28-1-1-2 39-7 37-5 35-3z" fill="#00A651"/>
<path transform="translate(1089,1329)" d="m0 0h46v2l-9 2-2 2-1 34h31l-1-33-2-3-9-2-1-2h47v2l-11 2-1 6v68l1 5 4 2 7 1v2h-47l1-2 9-2 2-3 1-35h-31l1 36 4 3 7 1v2h-46v-2l9-2 2-2v-76l-4-3-7-1z"/>
<path transform="translate(798,1329)" d="m0 0h59l10 3 6 4 5 6 2 5v12l-4 8-7 6-5 2h-3l11 16 12 17 5 5 5 2v2h-29l-24-34-3-4v-2h-6l1 34 4 3 7 1v2h-46l1-2 8-2 2-1 1-4v-70l-1-5-11-2zm34 5v38h13l7-3 4-4 2-4v-16l-5-8-7-3z" fill="#040404"/>
<path transform="translate(1282,1329)" d="m0 0h58l9 2 9 6 5 8 1 11-3 9-4 5-9 5h-3l4 7 13 18 9 12 7 4v1h-29l-9-12-14-20-5-7-6-1 1 32 2 4 9 2v2h-45v-2l9-2 2-3v-75l-5-3-6-1zm33 5v38h14l7-3 4-5 2-5v-12l-3-7-6-5-3-1z" fill="#010101"/>
<path transform="translate(709,1329)" d="m0 0h58l11 4 7 8 2 4v11l-4 7-8 5-6 2 14 6 7 8 1 3v12l-3 6-9 8-12 4h-58v-2l11-2 1-6v-68l-1-6-11-2zm33 5v34h11l6-3 5-6 1-2v-12l-4-7-8-4zm0 40v34l3 4h10l6-3 5-6 2-7-1-10-5-8-5-3-4-1z" fill="#010101"/>
<path transform="translate(940,1327)" d="m0 0h9l12 2 10 4 10 9 6 8 4 10 1 5v15l-3 11-5 10-7 8-11 7-10 3-12 1-14-2-12-5-10-9-7-11-3-10v-20l4-12 6-8 5-5 8-6 11-4zm0 5-8 4-6 8-4 13-1 9v14l2 14 5 12 8 7 3 1h12l6-3 6-7 4-11 1-6v-28l-3-13-6-9-8-5z" fill="#020203"/>
<path transform="translate(1193,1329)" d="m0 0h74v26h-3l-4-12-5-5-8-3-20-1v36l10-3 4-4 3-8 1-6h3v46h-3l-3-11-4-6-5-2-6-1 1 36h21l10-4 5-5 5-8 2-5h2l-1 14-2 14h-77v-2l9-2 2-3v-75l-4-3-7-1z" fill="#040405"/>
<path transform="translate(183,1329)" d="m0 0h52l12 4 6 5 4 7 1 4v7l-3 8-7 8-9 4-6 1h-17l1 32 2 4 9 2v2h-45v-2l9-2 2-2v-76l-4-3-7-1zm33 5v38h9l7-4 3-6 1-4v-11l-3-8-5-4-3-1z" fill="#040405"/>
<path transform="translate(411,1329)" d="m0 0h52l12 4 6 5 4 7 1 4v8l-4 9-8 7-7 3-6 1h-17l1 32 2 4 9 2v2h-45v-2l11-2 1-7v-66l-2-6-3-2-7-1zm33 5v38h9l7-4 3-5 1-4v-12l-3-8-5-4-3-1z" fill="#010101"/>
<path transform="translate(578,1329)" d="m0 0h33l13 17 14 17 11 14 3 4v-43l-2-4-10-4v-1h30v2l-8 3-2 2-1 5-1 79-4-2-11-14-14-17-13-16-8-10-11-14v59l3 6 4 2 6 1v2h-32v-2l8-2 3-2 1-3v-70l-5-5-7-2z" fill="#040404"/>
<path transform="translate(1587,1329)" d="m0 0h25l1 32 5-4 9-3 9 1 9 6 6 10 2 10-1 13-4 11-9 10-10 4h-13l-8-4-3-1-8 5h-3l-1-84-3-3-3-1zm33 33-6 4-2 2v38l3 6 3 2h8l4-4 2-5 1-6v-24l-3-9-4-4z" fill="#020202"/>
<path transform="translate(1663,1329)" d="m0 0h25l1 56 17-17 1-7-6-3v-2h28l-1 3-7 3-8 7-8 8 4 7 13 19 6 8v2l6 2v2h-32l3-3-1-6-12-17-3 1v20l6 4v1h-32v-2l5-3v-78l-5-3z" fill="#010101"/>
<path transform="translate(1402,1327)" d="m0 0h17l14 5 2-1 2-4h2l1 17v12h-3l-5-12-5-6-10-5h-11l-5 3-3 5 1 7 4 5 16 9 13 7 8 7 5 10v13l-4 8-4 5-10 6-13 2-11-2-8-3-7 1-4 4-1-1v-33h3l4 12 6 8 8 6 6 2h8l8-4 3-5v-7l-4-6-9-6-17-9-9-7-6-9-1-4v-10l3-8 5-6 8-5z" fill="#040404"/>
<path transform="translate(1499,1329)" d="m0 0h80v24l-3-1-4-11-6-5-2-1-14-1 1 77 4 3 7 1v2h-46v-2l9-2 2-2 1-77-13 1-7 4-4 8-2 6-3-1z" fill="#060606"/>
<path transform="translate(266,1329)" d="m0 0h80v24l-3-1-4-11-6-5-2-1-14-1 1 76 4 4 7 1v2h-46v-2l9-2 2-2 1-7 1-70-14 1-7 4-4 8-2 6-3-1z" fill="#020202"/>
<path transform="translate(528,1327)" d="m0 0h2l14 32 18 41 6 11 4 3 3 1v2h-43v-2l9-2-1-9-5-11-31-1-4 12v7l5 3 5 1v2h-29v-2l8-5 8-15 16-36 14-31zm-9 31-12 27v2h26l-5-13-7-16z" fill="#030303"/>
<path transform="translate(1e3 1329)" d="m0 0h79v24h-2l-5-12-6-5-2-1-14-1 1 76 4 4 7 1v2h-46v-2l11-2 1-7 1-72-14 1-6 3-4 6-3 9-3-1z"/>
<path transform="translate(407,1038)" d="m0 0 2 1z" fill="#00A651"/>
</svg>
